<svg xmlns="http://www.w3.org/2000/svg" width="94" height="16" viewBox="0 0 94 16" fill="none">
<g clip-path="url(#clip0_3216_1319)">
<mask id="mask0_3216_1319" style="mask-type:luminance" maskUnits="userSpaceOnUse" x="0" y="0" width="94" height="16">
<path d="M93.5 0H0.5V16H93.5V0Z" fill="white"/>
</mask>
<g mask="url(#mask0_3216_1319)">
<path d="M51.5582 11.3068H53.7915C53.6691 12.1905 53.2102 12.8915 52.476 13.4096C51.7418 13.9581 50.824 14.202 49.6921 14.202C48.3155 14.202 47.2447 13.8058 46.4493 12.9829C45.654 12.1601 45.2868 11.0325 45.2868 9.60007C45.2868 8.16769 45.6846 7.04007 46.4493 6.18674C47.2141 5.3334 48.2848 4.90674 49.6004 4.90674C50.8852 4.90674 51.9254 5.30293 52.6901 6.12578C53.455 6.94864 53.8526 8.01531 53.8526 9.38676V10.1181H47.673V10.2705C47.673 10.9105 47.8566 11.4286 48.2237 11.8248C48.5908 12.221 49.1108 12.4344 49.7227 12.4344C50.1816 12.4344 50.5487 12.3429 50.8852 12.1296C51.2218 11.9162 51.4358 11.642 51.5582 11.3068ZM49.6309 6.73531C49.1108 6.73531 48.6519 6.91816 48.3155 7.28388C47.9483 7.64959 47.7648 8.10674 47.7036 8.6553H51.4971C51.4665 8.07626 51.2829 7.61911 50.9464 7.2534C50.6098 6.91816 50.1816 6.73531 49.6309 6.73531Z" fill="white"/>
<path d="M61.0418 11.3068H63.275C63.1526 12.1905 62.6937 12.8915 61.9595 13.4096C61.2253 13.9581 60.3075 14.202 59.1757 14.202C57.799 14.202 56.7283 13.8058 55.9329 12.9829C55.1375 12.1601 54.7704 11.0325 54.7704 9.60007C54.7704 8.16769 55.168 7.04007 55.9329 6.18674C56.6976 5.3334 57.7684 4.90674 59.0839 4.90674C60.3687 4.90674 61.4089 5.30293 62.1737 6.12578C62.9385 6.94864 63.3362 8.01531 63.3362 9.38676V10.1181H57.1565V10.2705C57.1565 10.9105 57.3401 11.4286 57.7072 11.8248C58.0743 12.221 58.5944 12.4344 59.2062 12.4344C59.6651 12.4344 60.0322 12.3429 60.3687 12.1296C60.7052 11.9162 60.9194 11.642 61.0418 11.3068ZM59.145 6.73531C58.625 6.73531 58.1661 6.91816 57.8296 7.28388C57.4625 7.64959 57.2789 8.10674 57.2178 8.6553H61.0112C60.9805 8.07626 60.797 7.61911 60.4605 7.2534C60.124 6.91816 59.6651 6.73531 59.145 6.73531Z" fill="white"/>
<path d="M81.6608 11.3068H83.8941C83.7717 12.1905 83.3128 12.8915 82.5786 13.4096C81.8444 13.9581 80.9267 14.202 79.7947 14.202C78.4181 14.202 77.3474 13.8058 76.552 12.9829C75.7566 12.1601 75.3895 11.0325 75.3895 9.60007C75.3895 8.16769 75.7872 7.04007 76.552 6.18674C77.3168 5.3334 78.3875 4.90674 79.7029 4.90674C80.9878 4.90674 82.0279 5.30293 82.7928 6.12578C83.5576 6.94864 83.9553 8.01531 83.9553 9.38676V10.1181H77.7757V10.2705C77.7757 10.9105 77.9592 11.4286 78.3264 11.8248C78.6935 12.221 79.2135 12.4344 79.8253 12.4344C80.2842 12.4344 80.6514 12.3429 80.9878 12.1296C81.355 11.9162 81.5691 11.642 81.6608 11.3068ZM79.7642 6.73531C79.2441 6.73531 78.7853 6.91816 78.4487 7.28388C78.0816 7.64959 77.8981 8.10674 77.8368 8.6553H81.6303C81.5997 8.07626 81.4161 7.61911 81.0796 7.2534C80.7431 6.91816 80.3148 6.73531 79.7642 6.73531Z" fill="white"/>
<path d="M91.175 11.3068H93.4079C93.2856 12.1905 92.8266 12.8915 92.093 13.4096C91.3584 13.9581 90.4405 14.202 89.309 14.202C87.9321 14.202 86.8617 13.8058 86.0661 12.9829C85.2707 12.1601 84.9036 11.0325 84.9036 9.60007C84.9036 8.16769 85.3014 7.04007 86.0661 6.18674C86.8307 5.3334 87.9019 4.90674 89.2168 4.90674C90.5016 4.90674 91.5418 5.30293 92.3065 6.12578C93.072 6.94864 93.469 8.01531 93.469 9.38676V10.1181H87.2897V10.2705C87.2897 10.9105 87.4731 11.4286 87.8408 11.8248C88.2076 12.221 88.7277 12.4344 89.3391 12.4344C89.7981 12.4344 90.1658 12.3429 90.5016 12.1296C90.8383 11.9162 91.0527 11.642 91.175 11.3068ZM89.2478 6.73531C88.7277 6.73531 88.2688 6.91816 87.9321 7.28388C87.5652 7.64959 87.3818 8.10674 87.3207 8.6553H91.1139C91.0829 8.07626 90.8995 7.61911 90.5628 7.2534C90.2269 6.91816 89.7981 6.73531 89.2478 6.73531Z" fill="white"/>
<path d="M70.1889 14.1716H64.774V2.04199H70.0665C71.1984 2.04199 72.1161 2.31629 72.7892 2.86485C73.4622 3.41342 73.7987 4.14485 73.7987 5.08962C73.7987 5.76009 73.5846 6.33914 73.1563 6.82676C72.728 7.31438 72.1774 7.61914 71.5349 7.71057V7.77152C72.3609 7.83247 73.0645 8.13723 73.5846 8.68578C74.1353 9.2344 74.4106 9.90486 74.4106 10.6972C74.4106 11.7639 74.0435 12.6172 73.2786 13.2268C72.5445 13.8668 71.5043 14.1716 70.1889 14.1716ZM67.3438 3.93152V7.10105H69.1793C69.8524 7.10105 70.403 6.94866 70.7701 6.67438C71.1372 6.40009 71.3207 6.0039 71.3207 5.48581C71.3207 4.99818 71.1678 4.63247 70.8313 4.35818C70.4948 4.0839 70.0359 3.96199 69.4546 3.96199H67.3438V3.93152ZM67.3438 12.282H69.5464C70.2807 12.282 70.8313 12.1296 71.229 11.8249C71.6267 11.5201 71.8103 11.0629 71.8103 10.4839C71.8103 9.90486 71.6267 9.47817 71.229 9.1734C70.8313 8.86863 70.25 8.71624 69.4853 8.71624H67.3438V12.282Z" fill="white"/>
<path d="M42.2889 4.63247C43.0231 5.51629 43.6043 6.55247 43.9714 7.68009L45.4704 2.04199H42.8701L42.2889 4.63247Z" fill="white"/>
<path d="M43.9714 7.64958C43.6043 6.52195 43.023 5.48577 42.2889 4.60195L42.8701 2.01147L40.9733 10.6972H40.8815L38.6178 2.01147H36.4764L34.2125 10.6972H34.1514L32.2546 2.01147H29.6543L32.8358 14.0191H35.2221L37.5165 5.82101H37.5776L39.8721 14.0191H42.2582L43.9714 7.64958Z" fill="white"/>
<path d="M19.2529 5.11989C19.2529 4.69322 19.4671 4.29703 19.8342 4.0837L23.1382 2.01131C23.9642 1.49322 25.0349 2.10274 25.0349 3.0475V12.9523C25.0349 13.9275 23.9642 14.5066 23.1382 13.9884L19.8342 11.9466C19.4671 11.7332 19.2529 11.337 19.2529 10.9103V5.11989Z" fill="url(#paint0_linear_3216_1319)"/>
<path d="M0.5 3.65715C0.5 1.64572 2.15197 0 4.17105 0H14.45C16.469 0 18.1211 1.64572 18.1211 3.65715V12.3124C18.1211 14.3239 16.469 15.9695 14.45 15.9695H4.17105C2.15197 15.9695 0.5 14.3239 0.5 12.3124V3.65715Z" fill="url(#paint1_linear_3216_1319)"/>
<path d="M18.1211 12.3429V8.80766C17.3257 4.66289 14.2664 1.31052 10.2589 0.0305176H4.17105C2.15197 0.0305176 0.5 1.67623 0.5 3.68766V12.3429C0.5 14.3544 2.15197 16 4.17105 16H14.45C16.4997 16 18.1211 14.3544 18.1211 12.3429Z" fill="url(#paint2_linear_3216_1319)"/>
<path d="M6.43488 12.4648H6.3737C5.94541 12.5867 5.48652 12.3124 5.36416 11.8857L3.71218 5.79046C3.58981 5.36379 3.86514 4.90665 4.29343 4.81522H4.35462C4.78291 4.69332 5.24178 4.9676 5.36416 5.39427L7.01613 11.4895C7.13849 11.9161 6.86317 12.3733 6.43488 12.4648Z" fill="url(#paint3_linear_3216_1319)"/>
<path d="M8.02564 10.941C7.56676 10.941 7.16907 10.5754 7.16907 10.0877V8.32014C7.16907 7.86299 7.53617 7.4668 8.02564 7.4668C8.48453 7.4668 8.88222 7.83251 8.88222 8.32014V10.0877C8.88222 10.5754 8.48453 10.941 8.02564 10.941Z" fill="url(#paint4_linear_3216_1319)"/>
<path d="M10.5647 10.941C10.1059 10.941 9.70819 10.5754 9.70819 10.0877V8.32014C9.70819 7.86299 10.0753 7.4668 10.5647 7.4668C11.0236 7.4668 11.4214 7.83251 11.4214 8.32014V10.0877C11.3908 10.5754 11.0236 10.941 10.5647 10.941Z" fill="url(#paint5_linear_3216_1319)"/>
<path d="M12.5532 11.4284H12.4921C12.0638 11.3065 11.7885 10.8798 11.9109 10.4531L13.5628 4.35792C13.6852 3.93126 14.1441 3.68745 14.5724 3.77887H14.6335C15.0618 3.90078 15.3371 4.32745 15.2148 4.75411L13.5628 10.8494C13.4404 11.3065 12.9816 11.5503 12.5532 11.4284Z" fill="url(#paint6_linear_3216_1319)"/>
</g>
</g>
<defs>
<linearGradient id="paint0_linear_3216_1319" x1="18.0819" y1="-3.93075" x2="26.787" y2="19.6878" gradientUnits="userSpaceOnUse">
<stop stop-color="#3D9A9D"/>
<stop offset="1" stop-color="#3A6DAB"/>
</linearGradient>
<linearGradient id="paint1_linear_3216_1319" x1="-0.759599" y1="2.164" x2="19.1803" y2="13.7702" gradientUnits="userSpaceOnUse">
<stop stop-color="#3D9A9D"/>
<stop offset="1" stop-color="#3C9FD0"/>
</linearGradient>
<linearGradient id="paint2_linear_3216_1319" x1="-0.621572" y1="13.7648" x2="16.9569" y2="3.53307" gradientUnits="userSpaceOnUse">
<stop stop-color="#3D9A9D" stop-opacity="0"/>
<stop offset="1" stop-color="#E6EFF9" stop-opacity="0.5"/>
</linearGradient>
<linearGradient id="paint3_linear_3216_1319" x1="5.37205" y1="3.11834" x2="5.37205" y2="16.4719" gradientUnits="userSpaceOnUse">
<stop stop-color="#E6EFF9"/>
<stop offset="0.1227" stop-color="#E0ECF6"/>
<stop offset="0.2834" stop-color="#D0E4ED"/>
<stop offset="0.4651" stop-color="#B5D6DE"/>
<stop offset="0.6623" stop-color="#8FC3CA"/>
<stop offset="0.8697" stop-color="#5FABB0"/>
<stop offset="1" stop-color="#3D9A9D"/>
</linearGradient>
<linearGradient id="paint4_linear_3216_1319" x1="8.03305" y1="3.11848" x2="8.03305" y2="16.4721" gradientUnits="userSpaceOnUse">
<stop stop-color="#E6EFF9"/>
<stop offset="0.1227" stop-color="#E0ECF6"/>
<stop offset="0.2834" stop-color="#D0E4ED"/>
<stop offset="0.4651" stop-color="#B5D6DE"/>
<stop offset="0.6623" stop-color="#8FC3CA"/>
<stop offset="0.8697" stop-color="#5FABB0"/>
<stop offset="1" stop-color="#3D9A9D"/>
</linearGradient>
<linearGradient id="paint5_linear_3216_1319" x1="10.5497" y1="3.11848" x2="10.5497" y2="16.4721" gradientUnits="userSpaceOnUse">
<stop stop-color="#E6EFF9"/>
<stop offset="0.1227" stop-color="#E0ECF6"/>
<stop offset="0.2834" stop-color="#D0E4ED"/>
<stop offset="0.4651" stop-color="#B5D6DE"/>
<stop offset="0.6623" stop-color="#8FC3CA"/>
<stop offset="0.8697" stop-color="#5FABB0"/>
<stop offset="1" stop-color="#3D9A9D"/>
</linearGradient>
<linearGradient id="paint6_linear_3216_1319" x1="13.5605" y1="3.11818" x2="13.5605" y2="16.4718" gradientUnits="userSpaceOnUse">
<stop stop-color="#E6EFF9"/>
<stop offset="0.1227" stop-color="#E0ECF6"/>
<stop offset="0.2834" stop-color="#D0E4ED"/>
<stop offset="0.4651" stop-color="#B5D6DE"/>
<stop offset="0.6623" stop-color="#8FC3CA"/>
<stop offset="0.8697" stop-color="#5FABB0"/>
<stop offset="1" stop-color="#3D9A9D"/>
</linearGradient>
<clipPath id="clip0_3216_1319">
<rect width="93" height="16" fill="white" transform="translate(0.5)"/>
</clipPath>
</defs>
</svg>