<svg xmlns="http://www.w3.org/2000/svg" width="266" height="46" viewBox="0 0 266 46" fill="none">
<mask id="mask0_3102_33089" style="mask-type:luminance" maskUnits="userSpaceOnUse" x="0" y="0" width="266" height="46">
<path d="M266 0H0V46H266V0Z" fill="white"/>
</mask>
<g mask="url(#mask0_3102_33089)">
<path d="M146.037 32.5068H152.425C152.075 35.0476 150.763 37.063 148.662 38.5524C146.563 40.1295 143.938 40.8306 140.7 40.8306C136.763 40.8306 133.7 39.6914 131.425 37.3257C129.15 34.96 128.1 31.7181 128.1 27.6C128.1 23.4819 129.238 20.24 131.425 17.7867C133.613 15.3333 136.675 14.1067 140.438 14.1067C144.113 14.1067 147.088 15.2457 149.275 17.6114C151.463 19.9772 152.6 23.0438 152.6 26.9868V29.0895H134.925V29.5276C134.925 31.3676 135.45 32.8571 136.5 33.9962C137.55 35.1352 139.037 35.7487 140.788 35.7487C142.1 35.7487 143.15 35.4857 144.113 34.8724C145.075 34.2589 145.687 33.4706 146.037 32.5068ZM140.525 19.3638C139.037 19.3638 137.725 19.8895 136.763 20.941C135.712 21.9924 135.188 23.3067 135.012 24.8838H145.863C145.775 23.2191 145.25 21.9048 144.287 20.8533C143.325 19.8895 142.1 19.3638 140.525 19.3638Z" fill="url(#paint0_linear_3102_33089)"/>
<path d="M173.163 32.5068H179.55C179.2 35.0476 177.887 37.063 175.788 38.5524C173.687 40.1295 171.062 40.8306 167.825 40.8306C163.888 40.8306 160.825 39.6914 158.55 37.3257C156.275 34.96 155.225 31.7181 155.225 27.6C155.225 23.4819 156.362 20.24 158.55 17.7867C160.737 15.3333 163.8 14.1067 167.563 14.1067C171.237 14.1067 174.213 15.2457 176.4 17.6114C178.587 19.9772 179.725 23.0438 179.725 26.9868V29.0895H162.05V29.5276C162.05 31.3676 162.575 32.8571 163.625 33.9962C164.675 35.1352 166.163 35.7487 167.912 35.7487C169.225 35.7487 170.275 35.4857 171.237 34.8724C172.2 34.2589 172.813 33.4706 173.163 32.5068ZM167.737 19.3638C166.25 19.3638 164.937 19.8895 163.975 20.941C162.925 21.9924 162.4 23.3067 162.225 24.8838H173.075C172.987 23.2191 172.463 21.9048 171.5 20.8533C170.538 19.8895 169.225 19.3638 167.737 19.3638Z" fill="url(#paint1_linear_3102_33089)"/>
<path d="M232.137 32.5068H238.525C238.175 35.0476 236.862 37.063 234.762 38.5524C232.663 40.1295 230.038 40.8306 226.8 40.8306C222.862 40.8306 219.8 39.6914 217.525 37.3257C215.25 34.96 214.2 31.7181 214.2 27.6C214.2 23.4819 215.338 20.24 217.525 17.7867C219.713 15.3333 222.775 14.1067 226.537 14.1067C230.212 14.1067 233.187 15.2457 235.375 17.6114C237.563 19.9772 238.7 23.0438 238.7 26.9868V29.0895H221.025V29.5276C221.025 31.3676 221.55 32.8571 222.6 33.9962C223.65 35.1352 225.137 35.7487 226.887 35.7487C228.2 35.7487 229.25 35.4857 230.212 34.8724C231.263 34.2589 231.875 33.4706 232.137 32.5068ZM226.713 19.3638C225.225 19.3638 223.913 19.8895 222.95 20.941C221.9 21.9924 221.375 23.3067 221.2 24.8838H232.05C231.963 23.2191 231.437 21.9048 230.475 20.8533C229.512 19.8895 228.288 19.3638 226.713 19.3638Z" fill="url(#paint2_linear_3102_33089)"/>
<path d="M259.35 32.5068H265.736C265.387 35.0476 264.074 37.063 261.976 38.5524C259.875 40.1295 257.249 40.8306 254.013 40.8306C250.074 40.8306 247.013 39.6914 244.737 37.3257C242.462 34.96 241.412 31.7181 241.412 27.6C241.412 23.4819 242.55 20.24 244.737 17.7867C246.924 15.3333 249.988 14.1067 253.749 14.1067C257.424 14.1067 260.399 15.2457 262.586 17.6114C264.776 19.9772 265.911 23.0438 265.911 26.9868V29.0895H248.237V29.5276C248.237 31.3676 248.762 32.8571 249.813 33.9962C250.863 35.1352 252.35 35.7487 254.099 35.7487C255.412 35.7487 256.463 35.4857 257.424 34.8724C258.387 34.2589 259 33.4706 259.35 32.5068ZM253.838 19.3638C252.35 19.3638 251.037 19.8895 250.074 20.941C249.025 21.9924 248.501 23.3067 248.326 24.8838H259.175C259.086 23.2191 258.562 21.9048 257.599 20.8533C256.638 19.8895 255.412 19.3638 253.838 19.3638Z" fill="url(#paint3_linear_3102_33089)"/>
<path d="M199.325 40.7429H183.838V5.87036H198.975C202.212 5.87036 204.837 6.65895 206.763 8.23609C208.688 9.81323 209.65 11.9161 209.65 14.6323C209.65 16.5599 209.038 18.2247 207.812 19.6266C206.588 21.0285 205.013 21.9047 203.175 22.1675V22.3428C205.537 22.518 207.55 23.3942 209.038 24.9713C210.613 26.5485 211.4 28.4761 211.4 30.7542C211.4 33.821 210.35 36.2742 208.162 38.0266C206.063 39.8666 203.088 40.7429 199.325 40.7429ZM191.187 11.3028V20.4151H196.438C198.363 20.4151 199.938 19.977 200.988 19.1885C202.038 18.3999 202.562 17.2608 202.562 15.7713C202.562 14.3694 202.125 13.318 201.162 12.5294C200.2 11.7408 198.887 11.3904 197.225 11.3904H191.187V11.3028ZM191.187 35.3104H197.488C199.588 35.3104 201.162 34.8723 202.3 33.9961C203.438 33.1199 203.963 31.8056 203.963 30.141C203.963 28.4761 203.438 27.2494 202.3 26.3732C201.162 25.4969 199.5 25.0588 197.313 25.0588H191.187V35.3104Z" fill="url(#paint4_linear_3102_33089)"/>
<path d="M119.525 13.318C121.625 15.859 123.288 18.838 124.338 22.0799L128.625 5.87036H121.188L119.525 13.318Z" fill="url(#paint5_linear_3102_33089)"/>
<path d="M124.338 21.9925C123.288 18.7506 121.625 15.7716 119.525 13.2306L121.188 5.78296L115.762 30.7544H115.5L109.025 5.78296H102.9L96.425 30.7544H96.2502L90.825 5.78296H83.3876L92.4875 40.305H99.3126L105.875 16.7354H106.05L112.613 40.305H119.437L124.338 21.9925Z" fill="url(#paint6_linear_3102_33089)"/>
<path d="M53.6375 14.7201C53.6375 13.4934 54.25 12.3544 55.3 11.7411L64.7501 5.78295C67.1126 4.29343 70.175 6.04581 70.175 8.762V37.2382C70.175 40.042 67.1126 41.7069 64.7501 40.2171L55.3 34.3469C54.25 33.7334 53.6375 32.5944 53.6375 31.3677V14.7201Z" fill="url(#paint7_linear_3102_33089)"/>
<path d="M0 10.5143C0 4.73143 4.725 0 10.5 0H39.9C45.6749 0 50.4001 4.73143 50.4001 10.5143V35.3981C50.4001 41.1811 45.6749 45.9124 39.9 45.9124H10.5C4.725 45.9124 0 41.1811 0 35.3981V10.5143Z" fill="url(#paint8_linear_3102_33089)"/>
<path d="M50.4001 35.4857V25.3219C48.1251 13.4057 39.3749 3.76765 27.9125 0.0876465H10.5C4.725 0.0876465 0 4.81908 0 10.6019V35.4857C0 41.2687 4.725 46 10.5 46H39.9C45.7626 46 50.4001 41.2687 50.4001 35.4857Z" fill="url(#paint9_linear_3102_33089)"/>
<path d="M16.975 35.8363H16.8C15.575 36.1868 14.2624 35.3982 13.9125 34.1714L9.18747 16.6477C8.83745 15.421 9.62496 14.1068 10.85 13.8439H11.025C12.25 13.4934 13.5625 14.282 13.9125 15.5086L18.6375 33.0325C18.9874 34.259 18.2 35.5733 16.975 35.8363Z" fill="url(#paint10_linear_3102_33089)"/>
<path d="M21.5249 31.455C20.2124 31.455 19.075 30.4037 19.075 29.0018V23.9199C19.075 22.6056 20.1249 21.4666 21.5249 21.4666C22.8374 21.4666 23.9749 22.518 23.9749 23.9199V29.0018C23.9749 30.4037 22.8374 31.455 21.5249 31.455Z" fill="url(#paint11_linear_3102_33089)"/>
<path d="M28.7874 31.455C27.4751 31.455 26.3375 30.4037 26.3375 29.0018V23.9199C26.3375 22.6056 27.3874 21.4666 28.7874 21.4666C30.0999 21.4666 31.2375 22.518 31.2375 23.9199V29.0018C31.1501 30.4037 30.0999 31.455 28.7874 31.455Z" fill="url(#paint12_linear_3102_33089)"/>
<path d="M34.4748 32.857H34.3C33.0749 32.5067 32.2875 31.28 32.6375 30.0532L37.3624 12.5295C37.7124 11.3028 39.0249 10.6019 40.25 10.8647H40.4249C41.6499 11.2152 42.4374 12.4419 42.0874 13.6686L37.3624 31.1924C37.0124 32.5067 35.6999 33.2076 34.4748 32.857Z" fill="url(#paint13_linear_3102_33089)"/>
</g>
<defs>
<linearGradient id="paint0_linear_3102_33089" x1="86.7433" y1="34.1072" x2="267.934" y2="12.1003" gradientUnits="userSpaceOnUse">
<stop stop-color="#3A6DAB"/>
<stop offset="1" stop-color="#3D9A9D"/>
</linearGradient>
<linearGradient id="paint1_linear_3102_33089" x1="87.1394" y1="37.367" x2="268.331" y2="15.3603" gradientUnits="userSpaceOnUse">
<stop stop-color="#3A6DAB"/>
<stop offset="1" stop-color="#3D9A9D"/>
</linearGradient>
<linearGradient id="paint2_linear_3102_33089" x1="87.9995" y1="44.4488" x2="269.19" y2="22.4422" gradientUnits="userSpaceOnUse">
<stop stop-color="#3A6DAB"/>
<stop offset="1" stop-color="#3D9A9D"/>
</linearGradient>
<linearGradient id="paint3_linear_3102_33089" x1="88.3955" y1="47.7089" x2="269.587" y2="25.7023" gradientUnits="userSpaceOnUse">
<stop stop-color="#3A6DAB"/>
<stop offset="1" stop-color="#3D9A9D"/>
</linearGradient>
<linearGradient id="paint4_linear_3102_33089" x1="86.9892" y1="36.1306" x2="268.181" y2="14.1239" gradientUnits="userSpaceOnUse">
<stop stop-color="#3A6DAB"/>
<stop offset="1" stop-color="#3D9A9D"/>
</linearGradient>
<linearGradient id="paint5_linear_3102_33089" x1="84.8538" y1="18.5499" x2="266.045" y2="-3.45681" gradientUnits="userSpaceOnUse">
<stop stop-color="#3A6DAB"/>
<stop offset="1" stop-color="#3D9A9D"/>
</linearGradient>
<linearGradient id="paint6_linear_3102_33089" x1="83.429" y1="23.1048" x2="124.342" y2="23.1048" gradientUnits="userSpaceOnUse">
<stop stop-color="#97AACD"/>
<stop offset="1" stop-color="#739AC4"/>
</linearGradient>
<linearGradient id="paint7_linear_3102_33089" x1="50.2881" y1="-11.3005" x2="75.4135" y2="56.5189" gradientUnits="userSpaceOnUse">
<stop stop-color="#3D9A9D"/>
<stop offset="1" stop-color="#3A6DAB"/>
</linearGradient>
<linearGradient id="paint8_linear_3102_33089" x1="-3.60272" y1="6.22149" x2="53.578" y2="39.333" gradientUnits="userSpaceOnUse">
<stop stop-color="#3D9A9D"/>
<stop offset="1" stop-color="#3C9FD0"/>
</linearGradient>
<linearGradient id="paint9_linear_3102_33089" x1="-3.20794" y1="39.5738" x2="47.2012" y2="10.3835" gradientUnits="userSpaceOnUse">
<stop stop-color="#3D9A9D" stop-opacity="0"/>
<stop offset="1" stop-color="#E6EFF9" stop-opacity="0.5"/>
</linearGradient>
<linearGradient id="paint10_linear_3102_33089" x1="13.935" y1="8.96536" x2="13.935" y2="47.357" gradientUnits="userSpaceOnUse">
<stop stop-color="#E6EFF9"/>
<stop offset="0.1227" stop-color="#E0ECF6"/>
<stop offset="0.2834" stop-color="#D0E4ED"/>
<stop offset="0.4651" stop-color="#B5D6DE"/>
<stop offset="0.6623" stop-color="#8FC3CA"/>
<stop offset="0.8697" stop-color="#5FABB0"/>
<stop offset="1" stop-color="#3D9A9D"/>
</linearGradient>
<linearGradient id="paint11_linear_3102_33089" x1="21.5461" y1="8.96516" x2="21.5461" y2="47.3568" gradientUnits="userSpaceOnUse">
<stop stop-color="#E6EFF9"/>
<stop offset="0.1227" stop-color="#E0ECF6"/>
<stop offset="0.2834" stop-color="#D0E4ED"/>
<stop offset="0.4651" stop-color="#B5D6DE"/>
<stop offset="0.6623" stop-color="#8FC3CA"/>
<stop offset="0.8697" stop-color="#5FABB0"/>
<stop offset="1" stop-color="#3D9A9D"/>
</linearGradient>
<linearGradient id="paint12_linear_3102_33089" x1="28.7443" y1="8.96516" x2="28.7443" y2="47.3568" gradientUnits="userSpaceOnUse">
<stop stop-color="#E6EFF9"/>
<stop offset="0.1227" stop-color="#E0ECF6"/>
<stop offset="0.2834" stop-color="#D0E4ED"/>
<stop offset="0.4651" stop-color="#B5D6DE"/>
<stop offset="0.6623" stop-color="#8FC3CA"/>
<stop offset="0.8697" stop-color="#5FABB0"/>
<stop offset="1" stop-color="#3D9A9D"/>
</linearGradient>
<linearGradient id="paint13_linear_3102_33089" x1="37.3558" y1="8.96526" x2="37.3558" y2="47.3569" gradientUnits="userSpaceOnUse">
<stop stop-color="#E6EFF9"/>
<stop offset="0.1227" stop-color="#E0ECF6"/>
<stop offset="0.2834" stop-color="#D0E4ED"/>
<stop offset="0.4651" stop-color="#B5D6DE"/>
<stop offset="0.6623" stop-color="#8FC3CA"/>
<stop offset="0.8697" stop-color="#5FABB0"/>
<stop offset="1" stop-color="#3D9A9D"/>
</linearGradient>
</defs>
</svg>